<?xml version="1.0" encoding="utf-8"?>
<!-- Svg Vector Icons : http://www.onlinewebfonts.com/icon -->
<!DOCTYPE svg PUBLIC "-//W3C//DTD SVG 1.1//EN" "http://www.w3.org/Graphics/SVG/1.1/DTD/svg11.dtd">
<svg version="1.1" xmlns="http://www.w3.org/2000/svg" xmlns:xlink="http://www.w3.org/1999/xlink" x="0px" y="0px" viewBox="0 0 256 256" enable-background="new 0 0 256 256" xml:space="preserve">
<metadata> Svg Vector Icons : http://www.onlinewebfonts.com/icon </metadata>
<g><g><g><path fill="#000000" d="M126.7,10.2c-4,0.5-6,1.2-9.8,3.2c-4.4,2.4-8.3,6.6-10.6,11.2c-1,2-1.8,3.8-1.9,3.9c0,0.1-1.2-0.5-2.4-1.3c-10.4-6.4-23.7-4.7-32.5,4.1c-4.6,4.6-6.4,8.1-7.8,16.1c-0.1,0.8-0.9,1.2-3.2,1.8c-6.7,1.9-13,6.7-16.3,12.5c-1.9,3.3-3.5,9.3-3.5,13c0,3.9,1.2,8.7,2.9,12.1l1.5,2.9l-2.4,1.6C34.8,95,30.5,101,29,107.6c-0.8,3.4-0.6,9.9,0.3,13c1.9,6.6,7.3,13.5,12.8,16.3l2.6,1.3l0.1,4.3c0.2,7.3,3.1,13.7,8.1,18.5c4.9,4.7,9.9,6.9,16.9,7.2c5,0.2,8.5-0.3,12.5-2.1l2.5-1.1l0.9,1.8c2.8,6,10.5,15.3,16.4,19.8c10.1,7.8,22.7,10.9,34.5,8.4c14.1-2.9,24.5-11.4,34.9-28.4c0.4-0.7,0.7-0.7,3.2,0.2c1.9,0.8,4.1,1.1,8,1.3c4.8,0.2,5.7,0.1,9.1-1.1c11.3-3.8,18.3-13.3,18.4-24.8c0-2.4-0.1-4.8-0.3-5.4c-0.3-0.9,0.1-1.3,3.3-2.9c6.5-3.2,11.7-9.5,13.5-16.5c1-3.7,1-10.3,0-14c-1.7-6.7-6.9-13.2-12.9-16.3l-3.2-1.7V81c-0.1-5.3-1.4-9.9-4-14.1c-2.2-3.4-6.7-7.6-10.4-9.3c-3.1-1.6-3.2-1.6-2.9-3.3c0.4-3.3-0.7-8.7-2.8-13c-5.9-11.9-19.6-17.8-32.2-13.6c-1.6,0.5-2.9,0.9-2.9,0.8c0-0.1-0.9-1.9-2-4C148.5,14.4,137.9,8.8,126.7,10.2z M153.7,38.3c4.1,1.3,6.8,3,9.7,6.1c4.2,4.6,6.2,10.1,5.8,16.1l-0.2,3.1l3.5,1.5c1.9,0.9,4.2,2.2,5.1,2.9c2.4,2,1.5,2.7-3.6,2.6c-12-0.2-42.2-8.2-54.7-14.5c-3.5-1.8-4.6-2.8-4.1-3.9c0.3-0.7,1-0.8,5.8-0.5l5.5,0.2l1.4-2.7c2.5-5,7.6-9.2,13.5-11.1C144.3,37.1,150.3,37.2,153.7,38.3z M130.7,80.5c3.3,2.8,5.7,3.7,10.7,3.7c3.4,0,4.9-0.2,6.6-1l2.3-1.1l0.3,2.3c0.9,7.1,7.4,13.8,14.3,14.9c1.1,0.2,2,0.4,2,0.4c0,0.1-0.3,1.5-0.8,3.1c-1.8,7.3,2.4,14.7,9.8,16.8c3.4,1,5.6,2.9,7.3,6.4c2.7,5.6,1.2,12.6-3.4,16.4c-2.1,1.7-5.4,3.2-7.3,3.2c-0.9,0-1.2,0.6-2.1,3.9c-5.3,19-17.7,33.5-32.7,38c-1.5,0.4-4.9,0.9-7.8,1.1c-5.9,0.3-11-0.7-16.4-3.3c-9.5-4.5-18.4-14.4-23.6-26.1c-1.7-4-2.5-6.2-4.4-12.8c-0.2-0.6-0.8-0.8-2.8-0.8c-4.8,0-9.8-3.5-11.9-8.2c-1.2-2.7-1.4-7.5-0.3-10.1c2.2-5.2,5.2-7.6,11-8.6c5.5-1,8.7-3.2,11-7.5c1.6-3,1.6-3.3,1.5-7.4c-0.1-2.9,0-4.2,0.3-4.2c1.5,0,5.6-1.6,7.6-2.9c2.7-1.8,5.5-5.7,6.3-8.9c0.6-2.2,0.6-2.3,2.6-2.3c2.6,0,6.7-1.2,8.9-2.6c2-1.3,5.2-4.7,6-6.4l0.5-1.2l1.3,1.8C128.2,78,129.7,79.5,130.7,80.5z"/><path fill="#000000" d="M122.4,111.8c-5,1.6-9,5.1-11.2,9.9c-1.1,2.3-1.3,3.4-1.3,7.1c0,3.9,0.1,4.7,1.6,7.6c1.9,4,4.8,6.9,8.9,8.8c2.8,1.3,3.7,1.5,7.3,1.5c3.6,0,4.5-0.2,7.4-1.6c4-1.9,7.1-4.9,8.9-8.7c1.2-2.5,1.4-3.4,1.4-7.5c0-4.3-0.1-4.9-1.6-7.8c-3.1-6.2-8.6-9.8-15.4-10C126,111.1,123.6,111.4,122.4,111.8z"/><path fill="#000000" d="M98,112.6c-4.6,1.8-5.5,7.3-1.9,10.4c1.2,0.9,2,1.2,3.9,1.2c2.1,0,2.6-0.2,4.1-1.6c1.5-1.5,1.6-2,1.6-4.1c0-2.8-1.2-4.7-3.7-5.7C100.2,111.9,99.6,111.9,98,112.6z"/><path fill="#000000" d="M153.5,113c-3.1,1.4-4.4,4.9-2.9,7.8c1.1,2.1,3,3.4,5.2,3.4c4,0,6.5-2.7,6.1-6.6c-0.2-2.4-1.4-3.9-3.6-4.8C156.3,111.8,155.8,111.9,153.5,113z"/><path fill="#000000" d="M100.2,144.7c-4.2,2.5-5.2,7.1-3,13.2c5,13.3,16.3,21.1,30.8,21.1c9.8,0,16.3-2.6,22.6-9c7.5-7.4,10.8-17.1,7.9-22.3c-3.2-5.7-12.6-5.5-15.3,0.3c-0.5,1.2-1.3,3.1-1.7,4.4c-2,5.4-7,8.8-13.1,8.8c-7.4,0-12.2-3.4-14.5-10.1c-0.5-1.4-1.3-3.1-1.7-3.9C109.8,143.7,104,142.4,100.2,144.7z M105.8,151.9c0.2,0.4,1.1,2.3,2.1,4.4c2,4.3,5.5,8.1,9.1,9.9c8.5,4.4,19.3,3.3,25.8-2.6c2.6-2.3,5.4-6.6,6.2-9.5c0.7-2.5,1.6-3.4,2.7-3c1.1,0.4,0.6,2.5-1.5,6.8c-3.8,8-11,12.9-20,13.7c-6.4,0.5-13.3-1.5-18-5.2c-4.6-3.7-9.8-13-8.3-14.7C104.5,150.7,105.2,150.8,105.8,151.9z"/><path fill="#000000" d="M78.5,175.4c-1.2,0.3-7.3,2.1-13.6,3.9c-6.3,1.7-12.3,3.7-13.4,4.4c-3.8,2.2-6.5,7.7-5.8,11.6c0.5,2.7,3.3,5.3,6.6,6.1l2.5,0.6l-0.3,1.7c-0.4,2.2,0.8,8,2.2,10.7c1.5,2.9,5.3,6.8,8.1,8.3c3.5,1.9,8,2.9,11.2,2.6l2.7-0.3l0.9,2.2c1.4,3.5,5.1,7.2,9.4,9.3c3.3,1.6,4.1,1.8,8.3,2c3.7,0.1,5.1,0,7-0.7l2.4-0.9l2.4,2.3c2.7,2.5,7.9,5.2,11.9,6.2c3.5,0.8,10.4,0.7,13.9-0.2c3.9-1,8.9-3.7,11.4-6.1l2-1.9l2.4,0.8c4,1.4,10.5,0.9,14.7-1.1c4-1.9,8-5.6,9.8-9.1l1.4-2.7l2.3,0.3c4.9,0.6,11-1.6,15.4-5.7c4.1-3.9,6.9-10.7,6.3-15.7l-0.2-2l2.4-0.6c4.2-1.1,6.7-4,6.7-7.9c0-3.8-3.1-8.7-6.6-10.3c-1.8-0.9-26.9-8.1-27.4-7.9c-0.1,0.1-1.7,2.1-3.5,4.5c-2.7,3.5-3.2,4.4-2.6,4.9c0.9,0.9,16.3,11.1,21.2,14.1c3.1,1.9,4.2,2.9,4.5,3.9c1,3.3-0.8,9.2-3.6,12.6c-0.7,0.8-2.6,2.2-4.3,3.1c-2.6,1.4-3.5,1.6-6.4,1.6c-3.9,0-2.6,1.2-10.7-9.8c-2.8-3.8-6.7-9-8.7-11.5l-3.7-4.6l-3.5,2.1c-3.8,2.3-9.4,4.7-13.1,5.6c-1.6,0.4-2.3,0.9-2.3,1.4c0,1.3,3.3,18.9,4.7,24.5c1.5,6.2,1.4,6.5-3.2,9.5c-4.1,2.7-8.1,3.6-13.7,3.3c-6.6-0.3-12.2-2.8-15-6.7c-0.9-1.2-0.9-1.3,0-4.9c0.8-3.1,4.5-22.4,4.9-25.6c0.1-1-0.2-1.3-3.4-2.3c-4-1.3-8.3-3.4-12.1-5.8c-1.4-0.9-2.6-1.7-2.8-1.7c-0.5,0-16.6,21.1-18.5,24.2c-3.1,5.1-14.5,1.5-18.2-5.9c-1.4-2.7-2-6.7-1.5-9c0.4-1.6,1-2.1,3.6-3.6c1.6-1,7.8-4.9,13.6-8.7l10.5-6.9l-2.1-2.8c-1.2-1.6-2.7-3.5-3.2-4.5c-0.6-0.9-1.2-1.6-1.4-1.6C80.9,174.7,79.8,175,78.5,175.4z"/></g></g></g>
</svg>